<?xml version="1.0" encoding="UTF-8" standalone="no"?>
<!DOCTYPE svg PUBLIC "-//W3C//DTD SVG 1.1//EN" "http://www.w3.org/Graphics/SVG/1.1/DTD/svg11.dtd">
<svg width="100%" height="100%" viewBox="0 0 1024 1024" version="1.1" xmlns="http://www.w3.org/2000/svg" xmlns:xlink="http://www.w3.org/1999/xlink" xml:space="preserve" xmlns:serif="http://www.serif.com/" style="fill-rule:evenodd;clip-rule:evenodd;stroke-linejoin:round;stroke-miterlimit:2;">
    <g id="背景" transform="matrix(1,0,0,1,177,178)">
        <path d="M13.038,91.415C33.432,36.15 81.905,16.528 84.39,15.284C115.126,-0.099 143.996,1.97 190.501,1.969C538.446,1.957 538.491,2.083 544.554,3.037C587.745,9.828 612.432,30.656 617.283,34.749C624.579,40.905 641.342,60.007 646.7,69.379C662.451,96.929 665.085,121.823 665.362,122.565C669.895,134.722 667.417,287.954 668.115,520.506L667.037,521.5L666.984,522.5L666.961,523.5L666.942,524.5C666.615,532.006 667.516,531.829 667.806,532.672C664.871,540.217 669.568,555.974 647.668,596.602C638.031,614.48 613.52,638.712 596.399,647.3C576.979,657.041 576.772,656.265 561.423,661.308C554.317,663.643 547.004,664.126 546.425,664.329C537.204,667.566 420.917,667.07 417.5,667.07C163.217,667.012 163.16,667.06 157.454,665.994C155.194,665.572 68.847,676.064 21.326,594.606C11.496,577.757 1.414,547.131 1.904,517.505C2.157,502.227 1.882,502.323 1.919,326.5C1.954,155.359 3.01,155.378 2.952,140.497C2.885,123.577 5.004,123.871 5.916,116.557C6.175,114.482 7.493,103.91 13.038,91.415Z" style="fill:rgb(131,96,62);"/>
        <path d="M13.808,110.555C16.533,101.346 16.486,101.373 16.723,100.576C28.393,61.464 60.702,31.874 91.707,18.974C120.085,7.167 120.97,7.709 353.497,7.853C545.019,7.971 560.917,4.464 600.291,30.818C662.496,72.453 660.724,138.259 661.03,158.503C661.219,171 661.139,513.671 661.037,519.514C659.307,618.734 584.353,657.357 530.504,659.589C513.191,660.307 208.499,659.89 180.498,659.852C156.218,659.819 75.431,668.823 29.705,596.392C5.176,557.537 9.044,535.081 8.825,385.499C8.463,137.293 8.841,137.132 13.808,110.555Z" style="fill:rgb(69,37,20);"/>
        <path d="M306.088,149.735C309.447,154.467 309.198,154.505 313.162,158.811L314.792,160.303C318.758,162.907 318.853,162.598 319.172,162.847C321.015,164.283 314.906,164.09 314.522,164.078C266.957,162.576 260.256,177.272 252.502,177.356C243.882,177.45 187.959,178.06 153.932,220.886C79.582,314.464 154.767,397.002 159.536,399.45C161.359,400.386 189.647,385.753 217.536,395.403C220.869,396.556 241.667,403.753 252.256,422.563C253.054,423.982 251.419,423.504 244.399,420.88L245.5,419.292C245.342,418.869 246.556,418.186 242.488,414.56C240.429,412.724 240.015,413.798 237.455,412.616C172.64,382.594 114.012,442.581 141.883,508.18C142.364,509.311 143.436,510.281 143.468,511.51C143.485,512.18 141.987,512.218 142.004,512.888C138.959,508.026 134.454,494.908 133.903,493.305C132.441,489.048 132.089,479.243 131.851,476.482C132.666,464.651 132.14,458.024 142.083,439.306C149.901,424.586 152.444,425.65 154.395,422.55C154.576,422.264 145.229,414.347 139.44,407.558C71.632,328.035 105.203,236.598 146.445,197.445C165.838,179.035 171.195,180.291 167.981,176.398C166.552,174.667 165.121,175.849 164.869,175.498C163.908,174.157 163.702,174.493 162.298,173.487C161.552,172.953 162.954,172.578 162.232,171.895C160.443,170.203 161.287,169.574 159.356,168.192C75.014,226.901 54.968,343.009 135.287,426.796C137.827,429.445 129.901,435.006 126.767,447.569C125.323,453.356 125.3,453.322 124.5,454.24C124.327,454.438 124.527,454.483 124.12,457.5C124.089,457.728 123.965,457.646 122.024,459.467C124.211,443.695 124.627,443.804 130.043,430.293C130.966,427.992 121.974,419.505 120.915,418.15C13.035,279.999 136.906,111.327 280.521,139.397C303.951,143.976 303.937,146.471 306.088,149.735Z" style="fill:rgb(190,155,105);"/>
        <path d="M406.431,256.038C414.531,253.056 416.386,250.479 421.105,257.8C424.047,262.364 424.312,262.055 427.36,266.646C427.577,267.269 427.793,267.892 428.009,268.515C400.251,319.037 382.159,368.517 368.308,375.112C338.029,389.53 338.425,315.233 291.202,287.987C290.429,287.541 290.431,287.608 281.494,282.514C277.019,280.763 277.18,280.584 272.515,279.477C266.03,275.956 274.771,277.942 289.504,278.284C330.702,279.238 336.585,298.335 350.767,325.349C348.141,328.225 348.178,329.134 357.914,348.249C361.554,355.397 361.844,355.576 362.451,355.292C363.76,354.678 362.757,354.031 371.628,339.715C376.198,332.34 377.8,323.74 384.439,324.38C389.165,324.836 385.245,318.179 393.508,308.499C396.169,305.381 391.474,302.835 391.023,302.59C398.902,283.563 400.385,284.385 408.393,265.521C408.471,265.337 408.339,265.344 407.663,263.138C407.285,262.958 406.906,262.778 406.528,262.598C403.274,265.199 403.905,265.637 401.643,269.56C399.496,269.385 399.585,269.063 397.536,269.636C356.205,281.21 302.512,233.46 330.316,173.388C330.831,172.275 331.678,171.788 344.249,179.777C345.27,180.426 324.57,225.493 365.723,251.099C381.582,260.967 403.214,256.677 406.431,256.038Z" style="fill:rgb(200,166,109);"/>
        <path d="M428.009,268.515C431.036,271.782 431.412,271.487 433.105,275.65C441.468,296.21 439.413,296.722 439.119,297.273C407.145,357.273 388.389,405.512 375.261,414.095C353.57,428.276 339.506,403.039 337.957,400.258C329.762,385.553 299.653,321.557 284.177,295.69C278.859,287.88 279.038,287.905 272.5,281.214C272.403,281.114 272.5,281.214 272.515,279.477C277.18,280.584 277.019,280.763 281.494,282.514C290.431,287.608 290.429,287.541 291.202,287.987C338.425,315.233 338.029,389.53 368.308,375.112C382.159,368.517 400.251,319.037 428.009,268.515Z" style="fill:rgb(138,90,44);"/>
        <path d="M542.733,450.378C539.408,453.73 541.986,454.208 545.488,462.511C546.474,464.849 546.616,464.756 558.909,491.248C560.68,494.84 580.739,535.508 580.323,536.5C580.234,536.712 579.955,535.686 577.5,537.021C576.965,537.312 577.034,538.259 576.499,538.55C563.971,538.548 558.044,539.974 555.89,535.316C550.718,524.137 549.239,516.99 544.498,516.917C540.89,516.862 501.843,516.261 499.389,517.256C496.731,518.334 492.281,538.373 487.5,538.411C469.991,538.547 463.629,539.085 464.579,536.528C467.42,528.875 468.085,529.228 506.75,443.602C512.752,430.311 516.9,435.833 531.499,435.818C536.786,435.813 536.765,437.142 542.733,450.378Z" style="fill:rgb(225,194,133);"/>
        <path d="M159.356,168.192C161.287,169.574 160.443,170.203 162.232,171.895C162.954,172.578 161.552,172.953 162.298,173.487C163.702,174.493 163.908,174.157 164.869,175.498C165.121,175.849 166.552,174.667 167.981,176.398C171.195,180.291 165.838,179.035 146.445,197.445C105.203,236.598 71.632,328.035 139.44,407.558C145.229,414.347 154.576,422.264 154.395,422.55C152.444,425.65 149.901,424.586 142.083,439.306C132.14,458.024 132.666,464.651 131.851,476.482C128.117,472.81 127.74,472.982 127.497,473.336C121.619,481.891 140.606,520.759 146.206,523.751C146.825,524.081 147.137,521.996 147.755,522.326L148.137,522.748C148.677,523.521 154.393,531.706 156.05,531.5C156.752,531.413 157.099,530.39 157.8,530.303C165.122,540.05 171.35,546.422 165.609,542.203C147.798,529.116 143.479,524.064 141.864,522.176C117.13,493.252 122.005,460.069 122.024,459.467C123.965,457.646 124.089,457.728 124.12,457.5C124.527,454.483 124.327,454.438 124.5,454.24C125.3,453.322 125.323,453.356 126.767,447.569C129.901,435.006 137.827,429.445 135.287,426.796C54.968,343.009 75.014,226.901 159.356,168.192Z" style="fill:rgb(147,100,53);"/>
        <path d="M515.318,285.159C515.071,285.536 515.738,286.123 515.491,286.5C515.042,287.182 514.15,287.432 513.5,287.926C512.011,289.057 511.82,288.235 510.273,289.092C489.336,300.696 464.669,361.813 444.99,401.769C444.065,403.505 437.45,415.919 425.526,416.783C398.199,418.764 396.646,416.579 397.801,414.678C421.194,376.181 433.754,317.512 482.414,292.338C496.268,285.171 528.246,279.097 518.872,283.694C517.069,284.578 517.105,284.422 515.318,285.159Z" style="fill:rgb(204,172,117);"/>
        <path d="M373.846,441.655C371.384,447.865 371.406,447.828 371.187,448.362C368.269,455.453 349.816,500.311 333.213,536.368C332.125,538.73 329.923,538.647 309.5,538.583C306.023,538.573 306.291,537.128 290.389,499.551C264.092,437.413 262.394,435.79 264.551,435.739C289.313,435.161 289.873,436.485 290.691,438.421C319.761,507.205 319.708,507.098 319.774,507.21C319.958,507.525 320.622,507.883 322.388,503.459C326.804,492.393 344.225,451.851 346.149,447.373C346.556,447.376 347.174,450.197 349.371,447.396C349.871,446.758 352.18,439.048 353.616,438.875C353.839,438.848 373.359,438.261 372.623,439.5C372.394,439.886 371.423,440.034 371.645,440.424C372.06,441.155 373.431,440.924 373.846,441.655Z" style="fill:rgb(229,201,142);"/>
        <path d="M256.79,454.817C251.001,460.512 250.975,460.343 245.241,466.179C242.675,468.79 235.948,458.226 225.369,455.988C176.1,445.566 173.344,517.212 213.538,519.043C239.295,520.217 239.989,502.945 245.697,508.294C256.954,518.844 261.704,518.624 257.645,523.636C212.596,566.984 134.575,521.748 168.233,458.338C168.878,458.647 169.664,460.835 172.203,457.067C188.542,432.823 230.504,435.173 243.5,442.225C253.204,447.491 256.146,453.501 256.79,454.817Z" style="fill:rgb(225,194,134);"/>
        <path d="M383.89,443.495L384.972,442.5L385.08,441.5L385.192,440.5C388.572,436.059 389.809,438.946 424.499,438.719C428.163,438.696 469.634,438.425 470.292,438.816C471.238,439.378 470.077,439.704 470.643,452.554C470.735,454.655 469.557,452.936 467.417,452.917C451.192,452.773 450.175,453.273 450.719,454.5C450.929,454.974 451.293,455.369 451.503,455.843C442.043,456.429 441.197,455.689 441.076,457.405C440.428,466.623 442.026,537.106 440.369,538.194C440.225,538.288 417.062,539.281 416.367,537.572C415.315,534.989 417.438,457.219 415.301,455.991C413.754,455.102 384.881,457.25 384.068,454.653C383.913,454.159 383.892,444.388 383.89,443.495Z" style="fill:rgb(233,207,148);"/>
        <path d="M448.271,201.331C446.158,201.328 446.822,200.488 446.356,198.552C445.418,194.665 436.694,176.047 426.164,164.878C407.508,145.087 391.92,142.439 391.92,141.395C391.919,140.242 426.74,126.572 465.514,131.411C468.53,131.787 491.029,134.595 502.358,140.683C504.677,141.929 502.068,141.923 499.633,142.858C482.152,149.566 456.185,171.89 448.271,201.331Z" style="fill:rgb(177,132,77);"/>
        <path d="M237.455,412.616C240.015,413.798 240.429,412.724 242.488,414.56C246.556,418.186 245.342,418.869 245.5,419.292L244.399,420.88C243.374,420.636 242.398,420.211 241.373,419.967C159.877,400.501 120.995,474.193 157.8,530.303C157.099,530.39 156.752,531.413 156.05,531.5C154.393,531.706 148.677,523.521 148.137,522.748L147.755,522.326C144.779,517.559 144.706,517.718 142.004,512.888C141.987,512.218 143.485,512.18 143.468,511.51C143.436,510.281 142.364,509.311 141.883,508.18C114.012,442.581 172.64,382.594 237.455,412.616Z" style="fill:rgb(116,72,33);"/>
        <path d="M582.139,294.367C575.441,326.649 554.255,331.083 522.495,342.49C523.25,343.578 523.313,343.379 524.529,343.702C523.805,344.971 522.072,345.046 523.487,345.528C525.926,346.359 548.313,341.686 550.451,341.24C553.465,340.611 554.013,339.313 555.848,341.837C552.391,344.982 552.543,344.914 548.813,347.877L547.5,346.755C546.58,346.857 546.606,346.44 545.847,346.938C541.039,350.089 540.924,349.573 535.674,351.742C497.61,367.468 494.564,359.585 474.428,372.34C474.428,372.34 472.671,371.577 472.518,371.511C481.648,361.971 480.755,360.847 492.729,354.99C505.677,348.655 515.646,348.392 514.316,345.553C513.345,343.479 507.159,330.271 502.428,319.511C501.003,316.269 502.969,316.593 509.985,307.984C521.534,316.66 517.721,319.427 519.087,320.637C520.31,321.719 520.309,321.532 521.57,322.456C521.559,323.045 520.511,323.273 520.5,323.861C520.497,324.013 520.749,323.802 521.772,325.265C522.397,326.158 522.53,325.604 524.686,325.054C561.595,312.419 572.697,303.104 576.204,300.162C578.228,298.112 580.91,295.097 582.139,294.367Z" style="fill:rgb(189,146,84);"/>
        <path d="M262.528,313.514C261.702,314.766 259.669,321.208 250.514,322.614C244.002,323.614 243.212,319.893 237.938,323.987C201.486,352.288 194.572,361.396 191.231,348.512C200.691,339.67 231.439,316.674 234.176,314.099C234.176,314.099 233.235,312.199 233.153,312.034C234.965,297.612 236.873,298.21 241.435,294.409C243.928,292.332 242.47,258.006 242.93,230.508C243.017,225.323 249.417,222.562 253.177,226.804C255.795,229.758 253.437,290.852 254.846,293.318C257.881,298.631 266.172,296.265 262.528,313.514Z" style="fill:rgb(197,161,109);"/>
        <path d="M566.265,176.643C593.729,253.811 517.578,288.8 481.536,262.453C481.461,262.399 467.389,253.627 474.5,252.333L475.751,251.56C498.623,274.082 568.105,256.346 558.293,194.58C556.465,183.077 552.49,180.134 551.415,179.337C562.752,173.153 562.392,172.596 563.499,172.495C564.428,172.411 566.106,176.277 566.265,176.643Z" style="fill:rgb(152,106,57);"/>
        <path d="M312.776,116.383C341.816,171.653 400.56,146.518 434.012,211.723C437.541,220.283 437.246,220.795 436.84,221.5C436.493,222.101 435.436,222.025 435.089,222.627C432.821,218.058 432.762,218.202 430.166,213.739C387.191,158.381 339.44,185.642 315.813,138.326C310.677,128.04 311.582,119.306 311.549,118.5C311.491,117.109 312.136,117.487 312.776,116.383Z" style="fill:rgb(147,98,50);"/>
        <path d="M583.735,236.493C588.79,295.907 546.745,302.655 527.076,320.392C525.95,321.192 525.799,321 525.533,322.398C524.791,322.547 524.05,322.697 523.308,322.846C522.729,322.716 522.15,322.586 521.57,322.456C520.309,321.532 520.31,321.719 519.087,320.637C517.721,319.427 521.534,316.66 509.985,307.984C531.592,285.949 567.451,282.168 581.932,238.5L582.151,237.5L583.735,236.493Z" style="fill:rgb(202,166,106);"/>
        <path d="M575.45,118.445C577.97,123.042 575.152,122.737 571.287,126.248C551.099,144.582 540.414,142.523 524.091,150.006C521.612,151.142 516.781,151.38 514.1,152.062C511.036,152.841 511.312,153.425 510.699,156.556C513.103,160.554 513.98,159.954 518.466,158.341C570.591,139.595 566.145,131.621 572.406,128.384C572.991,128.082 573.239,130.062 573.824,129.759C544.112,162.826 507.533,155.044 475.073,191.112C468.832,198.679 465.799,200.786 459.63,215.542C459.513,216.02 458.653,219.538 458.101,221.5C458.559,222.164 459.016,222.827 459.473,223.491C459.262,224.209 458.864,224.862 458.653,225.58C455.189,237.365 451.244,204.74 469.924,179.808C503.595,134.869 535.204,155.472 575.45,118.445Z" style="fill:rgb(240,221,169);"/>
        <path d="M313.764,185.59C312.263,191.955 312.379,191.821 311.195,198.388C311.37,200.93 311.146,212.528 311.146,212.536C311.154,216.097 311.39,217.212 307.512,217.246C273.4,217.543 271.719,218.363 271.585,215.488C269.801,177.081 282.883,179.152 313.512,179.369C316.923,179.393 314.762,181.18 313.764,185.59Z" style="fill:rgb(197,162,106);"/>
        <path d="M486.708,306.455C489.974,313.569 481.428,312.05 469.916,337.815C438.499,408.122 435.456,406.698 432.383,408.264C420.928,414.101 416.578,410.916 409.478,413.687C407.877,414.312 407.976,413.799 406.616,412.839C436.712,398.029 427.864,389.342 460.759,331.655C461.065,331.119 461.078,331.181 465.07,325.256C465.622,325.454 469.015,328.563 469.969,324.524C471.645,317.424 476.548,320.667 478.957,313.7C479.578,311.903 483.248,310.089 483.684,309.873C484.427,309.506 485.417,309.511 485.965,308.891C486.528,308.255 486.145,307.091 486.708,306.455Z" style="fill:rgb(144,95,45);"/>
        <path d="M361.649,185.28C360.551,188.486 360.579,188.345 359.418,191.493C359.059,192.835 358.699,194.178 358.339,195.52C357.596,197.458 357.694,197.348 357.335,199.528C356.962,203.084 356.057,203.025 357.123,209.727C357.994,215.425 358.35,215.231 360.019,220.78C360.425,221.695 364.843,231.661 366.608,231.413C366.884,231.375 366.592,231.041 369.533,229.509C373.081,225.73 375.972,225.295 372.265,221.516C371.331,217.533 370.392,217.828 370.515,217.5C371.363,215.235 370.734,215.264 369.659,210.537C369.561,210.104 369.267,208.813 371.887,205.454C374.95,228.946 395.844,225.797 398.473,225.4C404.961,222.596 406.897,222.669 412.29,213.352C413.97,210.449 425.79,224.351 423.666,227.581C406.623,253.497 365.576,249.073 355.221,217.581C350.98,204.682 354.071,183.419 361.649,185.28Z" style="fill:rgb(240,217,154);"/>
        <path d="M545.341,367.226C544.632,367.727 543.923,368.229 543.214,368.73C541.982,366.375 542.081,366.073 541.889,366.197C540.897,366.839 541.419,367.231 540.507,367.822C534.246,370.42 534.106,369.932 528.485,373.587C516.667,375.649 513.172,374.603 511.505,378.626C510.527,378.641 478.1,379.145 499.48,376.423C533.657,372.071 552.984,357.021 556.873,353.992C560.195,351.406 560.061,355.114 581.417,400.533C588.163,414.88 588.273,414.854 588.353,415.507C588.504,416.759 584.816,416.541 584.497,416.523C583.832,415.94 583.166,415.358 582.5,414.776C582.548,413.692 583.929,413.028 581.784,412.167C580.177,411.523 576.268,409.522 575.794,409.28C572.096,407.388 556.582,399.451 545.341,367.226Z" style="fill:rgb(196,155,93);"/>
        <path d="M318.626,117.348C356.338,154.137 392.726,135.459 424.985,180.146C427.247,183.28 443.562,205.88 438.532,226.517C437.74,229.768 435.234,223.016 435.089,222.627C435.436,222.025 436.493,222.101 436.84,221.5C437.246,220.795 437.541,220.283 434.012,211.723L435.883,210.5C432.596,203.228 433.158,187.725 408.776,167.078C404.983,163.867 404.63,166.277 404.513,166.338C404.219,166.493 403.847,166.277 403.529,166.18C403.075,166.041 401.738,165.633 398.112,168.586C397.059,167.452 395.491,167.663 395.425,167.631C372.789,156.78 372.483,157.79 349.418,147.764C332.708,140.5 319.792,126.327 319.432,124.558C319.309,123.953 320.959,123.955 320.836,123.35C320.5,122.964 316.876,118.804 317.297,118.011C317.53,117.574 318.393,117.785 318.626,117.348Z" style="fill:rgb(229,206,148);"/>
        <path d="M522.705,208.536L523.5,208.11L524.638,207.5L524.905,208.5L524.5,209.377C527.293,211.743 521.742,218.563 521.577,219.5C521.502,219.925 522.472,220.076 522.397,220.5C522.384,220.57 520.499,221.203 522.2,222.54C524.864,224.634 522.845,225.559 524.172,228.586C525.16,230.842 528.485,232.891 529.87,233.872C529.143,234.449 517.357,247.457 496.572,244.103C481.687,241.702 473.378,229.636 472.038,227.691C472.623,227.645 472.915,226.758 473.5,226.713C473.727,226.695 473.641,226.862 475.458,228.785C476.757,230.044 476.68,230.02 478.266,230.797C478.646,231.095 479.025,231.393 479.405,231.692C480.084,232.11 480.764,232.529 481.443,232.948L483.534,234.386C484.853,235.12 486.171,235.854 487.49,236.588C490.984,237.809 493.001,238.22 492.078,234.65C492.013,234.4 491.627,232.908 492.765,231.504C493.543,230.543 493.157,230.514 493.573,229.467C493.119,228.832 492.664,228.197 492.21,227.563C491.703,227.084 492.575,226.957 492.134,226.541C491.987,226.403 491.965,226.463 489.85,225.486C488.948,225.14 488.046,224.795 487.143,224.45C487.022,224.131 487.646,223.818 487.524,223.499C487.049,222.251 485.057,221.302 484.798,221.179C481.143,219.198 483.514,215.65 483.781,215.25C493.416,228.906 514.584,233.941 522.705,208.536Z" style="fill:rgb(248,230,167);"/>
        <path d="M583.735,236.493L582.151,237.5L581.932,238.5C567.451,282.168 531.592,285.949 509.985,307.984C502.969,316.593 501.003,316.269 502.428,319.511C507.159,330.271 513.345,343.479 514.316,345.553C515.646,348.392 505.677,348.655 492.729,354.99C480.755,360.847 481.648,361.971 472.518,371.511C471.083,373.579 471.072,373.553 470.968,373.745C469.719,376.046 469.116,374.412 468.053,374.291C486.322,340.127 511.892,350.606 508.476,342.51C501.191,325.243 499.094,322.633 497.899,321.147C495.662,318.363 503.805,308.263 508.67,303.673C521.65,291.429 573.992,267.436 581.541,232.522C583.494,223.487 583.729,236.13 583.735,236.493Z" style="fill:rgb(237,211,159);"/>
        <path d="M359.116,303.705C344.823,278.255 340.807,277.523 322.656,266.254C320.587,264.97 321.874,251.456 321.128,245.393C319.74,234.126 323.207,255.555 347.816,271.054C354.133,275.033 364.219,277.46 364.267,280.504C364.307,283.056 364.757,311.858 364.349,312.412C363.63,313.388 363.357,312.406 359.116,303.705Z" style="fill:rgb(175,131,77);"/>
        <path d="M309.769,106.518C312.101,105.468 311.82,107.031 312.143,107.721C314.691,113.15 315.048,112.817 318.626,117.348C318.393,117.785 317.53,117.574 317.297,118.011C316.876,118.804 320.5,122.964 320.836,123.35C320.959,123.955 319.309,123.953 319.432,124.558C319.792,126.327 332.708,140.5 349.418,147.764C372.483,157.79 372.789,156.78 395.425,167.631C395.491,167.663 397.059,167.452 398.112,168.586C401.738,165.633 403.075,166.041 403.529,166.18C403.847,166.277 404.219,166.493 404.513,166.338C404.63,166.277 404.983,163.867 408.776,167.078C433.158,187.725 432.596,203.228 435.883,210.5L434.012,211.723C400.56,146.518 341.816,171.653 312.776,116.383C311.799,113.396 310.822,110.408 309.846,107.42L309.769,106.518Z" style="fill:rgb(229,202,143);"/>
        <path d="M406.528,262.598L407.663,263.138C408.339,265.344 408.471,265.337 408.393,265.521C400.385,284.385 398.902,283.563 391.023,302.59C391.474,302.835 396.169,305.381 393.508,308.499C385.245,318.179 389.165,324.836 384.439,324.38C377.8,323.74 376.198,332.34 371.628,339.715C362.757,354.031 363.76,354.678 362.451,355.292C361.844,355.576 361.554,355.397 357.914,348.249C348.178,329.134 348.141,328.225 350.767,325.349C361.027,345.416 362.061,347.022 363.079,345.186C367.716,336.833 387.406,296.863 401.643,269.56C403.905,265.637 403.274,265.199 406.528,262.598Z" style="fill:rgb(230,203,144);"/>
        <path d="M511.5,497.796C508.715,497.405 506.89,498.346 507.848,495.596C508.828,492.787 510.102,493.355 522.264,461.319C523.36,458.433 525.078,463.351 533.842,484.357C535.285,487.815 539.436,496.416 539.099,497.191C538.727,498.048 537.905,497.855 511.5,497.796Z" style="fill:rgb(69,37,20);"/>
        <path d="M551.415,179.337C552.49,180.134 556.465,183.077 558.293,194.58C568.105,256.346 498.623,274.082 475.751,251.56L476.526,250.393C486.223,255.389 495.542,259.999 514.55,256.743C529.064,254.257 542.68,242.341 548.224,232.342C564.882,202.297 548.223,183.765 551.415,179.337Z" style="fill:rgb(216,184,132);"/>
        <path d="M540.507,367.822C541.419,367.231 540.897,366.839 541.889,366.197C542.081,366.073 541.982,366.375 543.214,368.73C554.956,395.585 557.719,403.153 578.751,413.149C578.628,413.21 578.422,414.803 576.484,414.264C566.778,411.562 550.774,415.607 543.106,404.613C540.077,400.271 539.6,400.765 536.559,396.465C534.51,393.566 536.091,393.448 536.962,392.094C541.518,399.27 547.791,404.986 547.325,399.368C547.19,397.739 548.39,397.849 547.803,396.584C546.866,394.57 548.849,394.577 548.221,392.473C547.741,390.868 548.508,391.155 549.348,390.424C550.669,389.275 540.42,373.268 540.507,367.822Z" style="fill:rgb(103,59,22);"/>
        <path d="M533.298,185.197C540.392,182.909 545.787,205.87 538.169,222.359C535.13,228.935 534.726,228.53 529.87,233.872C528.485,232.891 525.16,230.842 524.172,228.586C522.845,225.559 524.864,224.634 522.2,222.54C520.499,221.203 522.384,220.57 522.397,220.5C522.472,220.076 521.502,219.925 521.577,219.5C521.742,218.563 527.293,211.743 524.5,209.377L524.905,208.5L524.638,207.5L523.5,208.11L522.705,208.536C522.699,206.851 523.014,205.174 523.008,203.489C523.006,202.831 522.15,196.893 522.059,196.746C521.714,196.191 520.479,196.933 520.135,196.379C519.776,195.225 519.417,194.072 519.058,192.918L520.934,191.5C525.767,197.07 525.837,202.356 528.236,200.941C528.786,200.617 528.949,199.825 529.5,199.501L531.498,199.504C531.601,200.383 531.705,201.263 531.809,202.143C531.106,203.974 530.778,203.91 531.313,205.735C531.369,208.553 530.137,207.801 527.814,209.389L528.086,209.766C527.977,212.198 529.11,212.117 528.39,214.526C527.871,216.265 529.087,215.441 531.363,215.615C532.319,217.878 532.112,218.489 534.5,218.349L535.851,219.767C537.016,215.058 537.237,215.241 538.303,210.429C538.416,208.126 538.529,205.822 538.642,203.519C537.811,196.805 537.71,196.905 535.625,190.462C534.134,188.008 534.392,188.039 533.298,185.197Z" style="fill:rgb(235,200,123);"/>
        <path d="M575.45,118.445C579.812,112.891 580.171,113.246 583.427,106.431C584.05,105.126 585.571,106.122 585.185,107.405C580.731,122.216 575.422,127.645 573.824,129.759C573.239,130.062 572.991,128.082 572.406,128.384C566.145,131.621 570.591,139.595 518.466,158.341C513.98,159.954 513.103,160.554 510.699,156.556C511.312,153.425 511.036,152.841 514.1,152.062C516.781,151.38 521.612,151.142 524.091,150.006C540.414,142.523 551.099,144.582 571.287,126.248C575.152,122.737 577.97,123.042 575.45,118.445Z" style="fill:rgb(212,181,119);"/>
        <path d="M448.735,233.358C453.648,240.023 453.523,239.948 458.702,246.331C462.601,250.407 464.015,251.026 460.895,255.782C457.06,261.628 451.337,275.443 449.595,279.533C448.831,278.535 448.067,277.538 447.302,276.54C447.398,275.151 447.135,275.165 448.016,265.433C447.591,251.884 447.712,252.021 447.64,238.497C447.743,235.781 447.592,235.858 448.735,233.358Z" style="fill:rgb(157,112,61);"/>
        <path d="M383.89,443.495C384.314,437.088 383.293,435.95 385.539,435.835C387.064,435.757 462.789,435.804 469.506,435.808C476.602,435.812 473.508,439.344 473.536,446.5C473.538,447.24 473.569,455.337 472.595,455.703C471.983,455.933 466.063,455.853 451.503,455.843C451.293,455.369 450.929,454.974 450.719,454.5C450.175,453.273 451.192,452.773 467.417,452.917C469.557,452.936 470.735,454.655 470.643,452.554C470.077,439.704 471.238,439.378 470.292,438.816C469.634,438.425 428.163,438.696 424.499,438.719C389.809,438.946 388.572,436.059 385.192,440.5L385.08,441.5L384.972,442.5L383.89,443.495Z" style="fill:rgb(250,239,203);"/>
        <path d="M528.485,373.587C531.464,383.37 532.72,382.733 536.962,392.094C536.091,393.448 534.51,393.566 536.559,396.465C539.6,400.765 540.077,400.271 543.106,404.613C550.774,415.607 566.778,411.562 576.484,414.264C578.422,414.803 578.628,413.21 578.751,413.149C579.039,413.303 580.642,414.159 582.5,414.776C583.166,415.358 583.832,415.94 584.497,416.523C527.261,421.062 538.269,396.926 526.323,380.61C524.463,378.069 513.912,378.683 511.505,378.626C513.172,374.603 516.667,375.649 528.485,373.587Z" style="fill:rgb(120,78,41);"/>
        <path d="M540.507,367.822C540.42,373.268 550.669,389.275 549.348,390.424C548.508,391.155 547.741,390.868 548.221,392.473C548.849,394.577 546.866,394.57 547.803,396.584C548.39,397.849 547.19,397.739 547.325,399.368C547.791,404.986 541.518,399.27 536.962,392.094C532.72,382.733 531.464,383.37 528.485,373.587C534.106,369.932 534.246,370.42 540.507,367.822Z" style="fill:rgb(151,100,47);"/>
        <path d="M548.813,347.877C513.404,372.253 480.248,364.466 466.399,381.358C461.53,387.296 467.793,374.81 468.053,374.291C469.116,374.412 469.719,376.046 470.968,373.745C471.072,373.553 471.083,373.579 472.518,371.511C472.671,371.577 474.428,372.34 474.428,372.34C494.564,359.585 497.61,367.468 535.674,351.742C540.924,349.573 541.039,350.089 545.847,346.938C546.606,346.44 546.58,346.857 547.5,346.755L548.813,347.877Z" style="fill:rgb(202,160,107);"/>
        <path d="M256.79,454.817C256.146,453.501 253.204,447.491 243.5,442.225C230.504,435.173 188.542,432.823 172.203,457.067C169.664,460.835 168.878,458.647 168.233,458.338C192.518,424.928 233.498,430.54 253.089,445.96C262.252,453.172 256.88,454.711 256.79,454.817Z" style="fill:rgb(250,241,202);"/>
        <path d="M448.735,233.358C447.592,235.858 447.743,235.781 447.64,238.497L446.178,239.5C445.388,240.523 442.703,245.157 438.315,248.596C443.861,258.836 444.578,258.43 445.483,263.508C445.624,264.301 444.619,267.307 448.016,265.433C447.135,275.165 447.398,275.151 447.302,276.54C448.067,277.538 448.831,278.535 449.595,279.533C447.837,283.155 447.458,285.896 446.635,283.406C445.11,278.787 445.158,278.921 443.447,274.522C437.583,261.621 437.739,261.628 432.402,253.576C430.344,250.47 435.639,248.089 443.186,237.276C445.71,233.66 445.505,230.354 448.735,233.358Z" style="fill:rgb(205,169,110);"/>
        <path d="M542.733,450.378C546.04,457.332 583.646,536.412 583.623,537.51C583.593,538.93 582.895,538.284 576.499,538.55C577.034,538.259 576.965,537.312 577.5,537.021C579.955,535.686 580.234,536.712 580.323,536.5C580.739,535.508 560.68,494.84 558.909,491.248C546.616,464.756 546.474,464.849 545.488,462.511C541.986,454.208 539.408,453.73 542.733,450.378Z" style="fill:rgb(239,216,167);"/>
        <path d="M153.036,306.549C152.011,314.01 149.348,313.541 136.5,313.182C127.053,312.919 127.513,302.239 135.501,301.535C150.235,300.238 151.653,302.521 153.036,306.549Z" style="fill:rgb(189,148,99);"/>
        <path d="M250.402,186.964C257.499,190.284 256.23,212.675 246.653,209.126C242.948,207.753 238.076,187.225 250.402,186.964Z" style="fill:rgb(249,234,184);"/>
        <path d="M582.139,294.367C580.91,295.097 578.228,298.112 576.204,300.162C572.697,303.104 561.595,312.419 524.686,325.054C523.727,324.029 523.853,324.091 523.308,322.846C524.05,322.697 524.791,322.547 525.533,322.398C526.185,322.187 526.838,321.976 527.49,321.765C561.156,305.148 564.95,309.967 582.772,287.883C585.47,284.54 582.306,293.874 582.139,294.367Z" style="fill:rgb(250,235,187);"/>
        <path d="M131.851,476.482C132.089,479.243 132.441,489.048 133.903,493.305C134.454,494.908 138.959,508.026 142.004,512.888C144.706,517.718 144.779,517.559 147.755,522.326C147.137,521.996 146.825,524.081 146.206,523.751C140.606,520.759 121.619,481.891 127.497,473.336C127.74,472.982 128.117,472.81 131.851,476.482Z" style="fill:rgb(118,68,26);"/>
        <path d="M533.298,185.197C534.392,188.039 534.134,188.008 535.625,190.462C537.71,196.905 537.811,196.805 538.642,203.519C536.62,201.712 536.563,201.777 536.458,201.568C535.144,198.943 534.5,201.135 531.809,202.143C531.705,201.263 531.601,200.383 531.498,199.504L529.5,199.501C528.949,199.825 528.786,200.617 528.236,200.941C525.837,202.356 525.767,197.07 520.934,191.5L519.058,192.918C517.872,191.737 517.946,191.841 516.553,190.892C518.488,190.318 531.961,185.659 533.298,185.197Z" style="fill:rgb(165,113,55);"/>
        <path d="M371.989,202.53L371.887,205.454C369.267,208.813 369.561,210.104 369.659,210.537C370.734,215.264 371.363,215.235 370.515,217.5C370.392,217.828 371.331,217.533 372.265,221.516C369.789,224.091 370.214,224.411 369.972,224.602C367.807,226.31 369.498,226.778 369.533,229.509C366.592,231.041 366.884,231.375 366.608,231.413C364.843,231.661 360.425,221.695 360.019,220.78C360.836,219.565 361.054,219.822 361.529,218.533C361.646,218.215 362.054,218.555 364.308,215.341C364.873,214.535 364.399,214.487 364.505,213.504C366.144,210.4 367.04,210.186 365.191,207.22C365.37,207.025 367.368,204.847 367.5,204.85C367.985,204.863 368.201,205.681 368.687,205.694C369.098,201.53 368.965,201.518 369.131,201.197C370.07,199.387 370.105,201.651 371.989,202.53Z" style="fill:rgb(244,212,132);"/>
        <path d="M499.211,292.059C501.137,295.597 499.204,295.466 495.947,297.821C494.116,299.146 494.712,299.715 492.538,300.664C488.579,302.393 489.026,302.841 486.708,306.455C486.145,307.091 486.528,308.255 485.965,308.891C485.417,309.511 484.427,309.506 483.684,309.873C483.248,310.089 479.578,311.903 478.957,313.7C476.548,320.667 471.645,317.424 469.969,324.524C469.015,328.563 465.622,325.454 465.07,325.256C479.874,304.335 489.131,298.798 499.211,292.059Z" style="fill:rgb(110,62,21);"/>
        <path d="M361.649,185.28C369.995,187.095 375.993,190.057 377.478,190.65C376.86,191.302 376.243,191.955 375.626,192.607L374.5,192.26L373.5,192.737L372.853,193.5C372.007,194.38 372.184,194.39 371.287,195.31C369.893,198.419 370.455,198.811 367.564,200.598C363.446,198.518 363.576,198.596 359.753,196.078L358.339,195.52C358.699,194.178 359.059,192.835 359.418,191.493C360.579,188.345 360.551,188.486 361.649,185.28Z" style="fill:rgb(172,122,59);"/>
        <path d="M545.341,367.226C556.582,399.451 572.096,407.388 575.794,409.28C576.268,409.522 580.177,411.523 581.784,412.167C583.929,413.028 582.548,413.692 582.5,414.776C580.642,414.159 579.039,413.303 578.751,413.149C557.719,403.153 554.956,395.585 543.214,368.73C543.923,368.229 544.632,367.727 545.341,367.226Z" style="fill:rgb(210,166,106);"/>
        <path d="M479.1,215.138C479.294,214.938 481.525,212.639 481.525,212.639C482.949,212.485 482.55,213.15 483.781,215.25C483.514,215.65 481.143,219.198 484.798,221.179C484.044,223.414 483.544,223.238 483.752,225.492C483.756,225.534 483.762,225.506 479.405,231.692C479.025,231.393 478.646,231.095 478.266,230.797C478.432,228.386 478.717,228.323 478.18,227.729C477.273,226.726 477.256,227.661 475.458,228.785C473.641,226.862 473.727,226.695 473.5,226.713C472.915,226.758 472.623,227.645 472.038,227.691C469.712,223.401 477.066,217.579 479.1,215.138Z" style="fill:rgb(178,127,66);"/>
        <path d="M447.64,238.497C447.712,252.021 447.591,251.884 448.016,265.433C444.619,267.307 445.624,264.301 445.483,263.508C444.578,258.43 443.861,258.836 438.315,248.596C442.703,245.157 445.388,240.523 446.178,239.5L447.64,238.497Z" style="fill:rgb(253,246,196);"/>
        <path d="M242.782,305.622C249.439,295.269 254.132,303.993 255.086,306.577C254.328,318.102 241.169,316.437 242.782,305.622Z" style="fill:rgb(67,33,12);"/>
        <path d="M338.788,271.082C351.924,279.789 359.134,280.321 359.459,284.509C359.807,289.003 359.366,291.512 360.029,294.281C360.333,295.549 359.789,295.243 358.506,295.494C351.14,278.396 338.019,275.196 337.5,272.943C337.331,272.208 338.958,271.817 338.788,271.082Z" style="fill:rgb(141,91,39);"/>
        <path d="M310.564,131.498C312.808,138.881 311.619,138.924 311.425,141.502C311.368,142.259 313.863,141.472 314.423,150.511C314.481,151.444 315.682,153.164 315.496,153.501C314.983,154.429 314.205,154.427 315.166,155.606C316.409,157.13 315.074,157.012 313.162,158.811C309.198,154.505 309.447,154.467 306.088,149.735C306.276,149.002 307.806,149.233 307.994,148.5C308.571,146.241 308.096,143.838 308.192,141.509C308.459,134.975 308.675,135.059 308.671,134.496C308.668,134.063 307.882,133.931 307.834,133.5C307.802,133.217 308.532,133.247 308.5,132.964L309.5,131.934L310.564,131.498Z" style="fill:rgb(92,49,23);"/>
        <path d="M475.073,191.112C475.895,191.185 475.926,192.863 476.749,192.936C477.501,193.002 477.678,191.536 478.422,191.408C478.422,191.408 479.293,193.228 479.369,193.387C478.679,194.228 466.666,205.014 463.777,211.677C463.703,211.848 463.858,211.83 464.866,213.739C463.068,216.99 461.271,220.24 459.473,223.491C459.016,222.827 458.559,222.164 458.101,221.5C458.653,219.538 459.513,216.02 459.63,215.542C465.799,200.786 468.832,198.679 475.073,191.112Z" style="fill:rgb(138,88,39);"/>
        <path d="M233.153,312.034C233.235,312.199 234.176,314.099 234.176,314.099C231.439,316.674 200.691,339.67 191.231,348.512C191.726,342.608 193.915,343.596 233.153,312.034Z" style="fill:rgb(183,140,96);"/>
        <path d="M377.478,190.65C378.258,190.922 385.603,193.482 386.642,195.409C391.835,205.04 370.092,206.409 375.626,192.607C376.243,191.955 376.86,191.302 377.478,190.65Z" style="fill:rgb(253,247,206);"/>
        <path d="M146.228,364.461C148.177,360.018 158.588,356.049 159.569,356.304C169.177,358.802 148.217,375.638 146.228,364.461Z" style="fill:rgb(160,112,67);"/>
        <path d="M516.553,190.892C517.946,191.841 517.872,191.737 519.058,192.918C519.417,194.072 519.776,195.225 520.135,196.379C519.984,197.23 518.548,205.375 511.404,202.75C508.876,201.821 507.468,198.216 507.897,196.59C508.567,194.055 515.782,191.197 516.553,190.892Z" style="fill:rgb(252,243,202);"/>
        <path d="M147.494,251.505C141.864,240.263 161.632,249.051 162.067,253.522C162.181,254.693 160.935,262.002 147.494,251.505Z" style="fill:rgb(195,154,98);"/>
        <path d="M373.846,441.655C373.431,440.924 372.06,441.155 371.645,440.424C371.423,440.034 372.394,439.886 372.623,439.5C373.359,438.261 353.839,438.848 353.616,438.875C352.18,439.048 349.871,446.758 349.371,447.396C347.174,450.197 346.556,447.376 346.149,447.373C350.171,438.228 350.103,438.266 350.492,437.496C350.884,436.721 350.989,435.642 374.462,435.837C377.031,435.859 375.318,437.208 373.846,441.655Z" style="fill:rgb(247,238,206);"/>
        <path d="M194.309,217.689C193.798,216.993 191.863,214.363 188.914,208.346C187.52,205.501 191.622,201.108 194.462,204.537C203.231,215.125 199.617,221.717 194.309,217.689Z" style="fill:rgb(234,204,146);"/>
        <path d="M555.848,341.837C554.013,339.313 553.465,340.611 550.451,341.24C548.313,341.686 525.926,346.359 523.487,345.528C522.072,345.046 523.805,344.971 524.529,343.702C539.411,340.267 550.721,339.573 558.59,335.783C565.904,332.26 558.53,339.148 555.848,341.837Z" style="fill:rgb(240,213,164);"/>
        <path d="M371.287,195.31C371.493,195.996 372.736,195.995 372.943,196.682C372.943,196.682 372.066,202.062 371.989,202.53C370.105,201.651 370.07,199.387 369.131,201.197C368.965,201.518 369.098,201.53 368.687,205.694C368.201,205.681 367.985,204.863 367.5,204.85C367.368,204.847 365.37,207.025 365.191,207.22C359.232,207.453 359.106,203.5 358.472,205.153C357.202,208.463 364.265,209.632 360.692,209.812C360.407,209.826 360.428,209.805 357.123,209.727C356.057,203.025 356.962,203.084 357.335,199.528C361.775,200.987 360.918,202.821 365.587,203.65C365.829,203.488 366.899,202.775 367.564,200.598C370.455,198.811 369.893,198.419 371.287,195.31Z" style="fill:rgb(205,155,79);"/>
        <path d="M143.554,303.786C143.568,304.34 141.86,306.224 144.71,306.101C146.683,306.016 146.604,306.845 146.912,307.366C149.765,312.191 145.109,309.779 139.452,310.276C138.787,310.334 129.372,311.16 132.562,305.573C134.512,302.158 135.485,304.001 143.554,303.786Z" style="fill:rgb(180,139,79);"/>
        <path d="M365.191,207.22C367.04,210.186 366.144,210.4 364.505,213.504C364.399,214.487 364.873,214.535 364.308,215.341C362.054,218.555 361.646,218.215 361.529,218.533C361.054,219.822 360.836,219.565 360.019,220.78C358.35,215.231 357.994,215.425 357.123,209.727C360.428,209.805 360.407,209.826 360.692,209.812C364.265,209.632 357.202,208.463 358.472,205.153C359.106,203.5 359.232,207.453 365.191,207.22Z" style="fill:rgb(223,180,100);"/>
        <path d="M531.313,205.735C534.114,204.977 534.649,205.091 535.362,207.804C535.442,208.109 535.667,207.88 538.303,210.429C537.237,215.241 537.016,215.058 535.851,219.767L534.5,218.349C532.112,218.489 532.319,217.878 531.363,215.615C531.644,214.891 531.924,214.167 532.204,213.443C533.277,213.459 532.505,214.675 533.5,214.69C533.718,214.694 534.848,214.711 535.953,213.5C536.192,213.238 536.768,211.59 531.773,212.013C531.67,210.457 531.618,210.57 531.67,210.457C532.772,208.068 530.644,209.695 528.086,209.766L527.814,209.389C530.137,207.801 531.369,208.553 531.313,205.735Z" style="fill:rgb(217,172,93);"/>
        <path d="M242.782,305.622C241.169,316.437 254.328,318.102 255.086,306.577C255.624,307.078 257.898,306.49 256.388,312.447C255.144,317.352 239.23,318.277 240.659,308.5L240.788,307.5L241.078,306.5L242.782,305.622Z" style="fill:rgb(193,152,104);"/>
        <path d="M134.137,376.569C135.087,375.284 135.408,374.426 136.228,375.776C140.096,382.141 139.91,382.075 143.927,388.198C146.462,392.062 148.716,393.059 147.641,394.54C146.584,395.995 144.956,395.592 134.137,376.569Z" style="fill:rgb(224,190,126);"/>
        <path d="M432.632,354.506C433.238,355.066 433.844,355.626 434.45,356.186C430.011,364.047 431.817,364.96 426.252,372.077C421.842,372.099 428.568,362.579 432.632,354.506Z" style="fill:rgb(231,199,136);"/>
        <path d="M409.183,222.413C413.291,226.566 415.934,229.016 416.536,229.574C412.685,233.987 412.194,233.257 408.45,235.809L407.559,234.5C408.709,233.709 408.168,233.248 409.371,232.512C411.557,232.499 412.564,232.643 411.956,230.46C411.503,228.832 411.282,229.028 407.903,224.457C408.453,223.284 408.167,223.255 409.183,222.413Z" style="fill:rgb(196,147,73);"/>
        <path d="M451.97,263.663L450.167,262.5L450.281,261.5L450.778,260.5C455.003,247.037 459.315,249.827 459.054,250.813C458.754,251.947 458.146,251.637 451.97,263.663Z" style="fill:rgb(126,75,29);"/>
        <path d="M404.87,225.642C405.019,225.946 404.124,226.162 404.273,226.466C404.551,227.034 405.149,226.382 409.371,232.512C408.168,233.248 408.709,233.709 407.559,234.5L408.45,235.809C405.105,237.106 404.176,238.262 404.215,236.62C404.242,235.488 404.796,235.649 404.72,234.477C404.531,231.587 402.498,230.604 402.432,230.489C402.197,227.534 402.466,227.461 404.87,225.642Z" style="fill:rgb(228,190,109);"/>
        <path d="M413.382,216.497C415.267,217.822 417.625,220.962 417.947,221.39C420.841,225.243 422.18,225.755 420.613,226.228C420.613,226.228 418.672,227.45 418.504,227.556C413.842,221.172 412.284,220.01 411.604,219.503C411.896,219.017 411.469,218.973 411.787,218.442C411.89,218.27 411.905,218.298 413.382,216.497Z" style="fill:rgb(172,119,59);"/>
        <path d="M531.809,202.143C534.5,201.135 535.144,198.943 536.458,201.568C536.563,201.777 536.62,201.712 538.642,203.519C538.529,205.822 538.416,208.126 538.303,210.429C535.667,207.88 535.442,208.109 535.362,207.804C534.649,205.091 534.114,204.977 531.313,205.735C530.778,203.91 531.106,203.974 531.809,202.143Z" style="fill:rgb(196,146,72);"/>
        <path d="M411.604,219.503C412.284,220.01 413.842,221.172 418.504,227.556C417.848,228.229 417.192,228.901 416.536,229.574C415.934,229.016 413.291,226.566 409.183,222.413C409.99,221.443 410.797,220.473 411.604,219.503Z" style="fill:rgb(184,133,66);"/>
        <path d="M489.85,225.486C491.965,226.463 491.987,226.403 492.134,226.541C492.575,226.957 491.703,227.084 492.21,227.563C488.756,232.193 487.576,236.038 487.49,236.588C486.171,235.854 484.853,235.12 483.534,234.386C487.184,230.281 486.246,229.731 489.85,225.486Z" style="fill:rgb(226,181,100);"/>
        <path d="M492.21,227.563C492.664,228.197 493.119,228.832 493.573,229.467C493.157,230.514 493.543,230.543 492.765,231.504C491.627,232.908 492.013,234.4 492.078,234.65C493.001,238.22 490.984,237.809 487.49,236.588C487.576,236.038 488.756,232.193 492.21,227.563Z" style="fill:rgb(234,194,111);"/>
        <path d="M487.143,224.45C488.046,224.795 488.948,225.14 489.85,225.486C486.246,229.731 487.184,230.281 483.534,234.386L481.443,232.948C483.246,230.494 486.7,225.138 487.143,224.45Z" style="fill:rgb(214,164,85);"/>
        <path d="M407.903,224.457C411.282,229.028 411.503,228.832 411.956,230.46C412.564,232.643 411.557,232.499 409.371,232.512C405.149,226.382 404.551,227.034 404.273,226.466C404.124,226.162 405.019,225.946 404.87,225.642L407.903,224.457Z" style="fill:rgb(221,176,96);"/>
        <path d="M484.798,221.179C485.057,221.302 487.049,222.251 487.524,223.499C487.646,223.818 487.022,224.131 487.143,224.45C486.7,225.138 483.246,230.494 481.443,232.948C480.764,232.529 480.084,232.11 479.405,231.692C483.762,225.506 483.756,225.534 483.752,225.492C483.544,223.238 484.044,223.414 484.798,221.179Z" style="fill:rgb(195,144,70);"/>
        <path d="M358.339,195.52L359.753,196.078C360.086,201.07 363.03,199.274 365.587,203.65C360.918,202.821 361.775,200.987 357.335,199.528C357.694,197.348 357.596,197.458 358.339,195.52Z" style="fill:rgb(174,123,54);"/>
        <path d="M528.086,209.766C530.644,209.695 532.772,208.068 531.67,210.457C531.618,210.57 531.67,210.457 531.773,212.013L532.204,213.443C531.924,214.167 531.644,214.891 531.363,215.615C529.087,215.441 527.871,216.265 528.39,214.526C529.11,212.117 527.977,212.198 528.086,209.766Z" style="fill:rgb(233,195,109);"/>
        <path d="M372.265,221.516C375.972,225.295 373.081,225.73 369.533,229.509C369.498,226.778 367.807,226.31 369.972,224.602C370.214,224.411 369.789,224.091 372.265,221.516Z" style="fill:rgb(251,231,154);"/>
        <path d="M359.753,196.078C363.576,198.596 363.446,198.518 367.564,200.598C366.899,202.775 365.829,203.488 365.587,203.65C363.03,199.274 360.086,201.07 359.753,196.078Z" style="fill:rgb(199,148,76);"/>
        <path d="M438.412,257.52C434.183,252.422 434.326,252.126 434.573,251.62C437.028,246.564 439.616,255.95 439.768,256.5L438.412,257.52Z" style="fill:rgb(196,155,84);"/>
        <path d="M453.668,244.046C452.703,244.953 452.92,245.016 451.748,245.849C449.921,247.149 450.16,243.054 450.091,242.5L449.398,241.5L449.335,240.5L449.091,239.5C449.53,239.549 449.524,238.451 449.964,238.5C450.338,238.542 449.927,238.931 452.555,242.432C452.948,242.955 453.276,243.524 453.668,244.046Z" style="fill:rgb(171,125,67);"/>
        <path d="M668.115,520.506C668.172,526.687 669.85,526.731 667.806,532.672C667.516,531.829 666.615,532.006 666.942,524.5L666.961,523.5L666.984,522.5L667.037,521.5L668.115,520.506Z" style="fill:rgb(177,161,147);"/>
        <path d="M157.5,402.708C157.127,402.421 156.465,403.094 156.092,402.807C153.51,400.824 151.73,397.238 153.578,397.661C157.116,398.472 156.487,399.335 157.5,402.708Z" style="fill:rgb(204,167,103);"/>
        <path d="M302.457,108.522C301.857,109.959 302.129,110.54 300.56,110.363C296.577,109.912 300.259,105.024 301.166,106.773C301.43,107.281 301.186,107.991 301.526,108.452C301.711,108.702 302.272,108.271 302.457,108.522Z" style="fill:rgb(117,70,34);"/>
        <path d="M386.125,313.529C388.013,314.921 386.323,318.154 385.534,318.386C382.257,319.35 385.908,313.855 386.125,313.529Z" style="fill:rgb(238,213,152);"/>
        <path d="M449.438,337.431C448.906,336.924 447.932,337.096 447.401,336.589C445.496,334.77 450.809,332.177 450.455,335.493C450.437,335.667 450.38,335.636 449.438,337.431Z" style="fill:rgb(250,234,178);"/>
        <path d="M479.32,218.302C479.222,219.455 480.846,218.531 480.743,219.735C480.727,219.927 480.722,219.985 479.052,221.448C468.836,230.395 479.139,218.478 479.32,218.302Z" style="fill:rgb(169,118,54);"/>
        <path d="M366.462,192.354C367.836,186.796 371.53,190.463 370.575,191.556C370.372,191.788 369.992,191.888 369.69,191.825C369.182,191.719 368.765,190.818 368.319,191.084C367.283,191.703 368.579,192.399 367.542,193.108C366.845,193.585 367.178,191.865 366.462,192.354Z" style="fill:rgb(166,114,52);"/>
        <path d="M531.773,212.013C536.768,211.59 536.192,213.238 535.953,213.5C534.848,214.711 533.718,214.694 533.5,214.69C532.505,214.675 533.277,213.459 532.204,213.443L531.773,212.013Z" style="fill:rgb(225,183,103);"/>
        <path d="M571.602,145.704C569.184,140.808 572.784,142.312 572.991,142.5C574.688,144.043 573.365,144.27 571.602,145.704Z" style="fill:rgb(105,59,26);"/>
        <path d="M183.052,473.688C183.007,473.344 182.335,468.181 184.435,469.571C186.833,471.159 184.969,471.555 183.052,473.688Z" style="fill:rgb(248,224,162);"/>
        <path d="M521.57,322.456C522.15,322.586 522.729,322.716 523.308,322.846C523.853,324.091 523.727,324.029 524.686,325.054C522.53,325.604 522.397,326.158 521.772,325.265C520.749,323.802 520.497,324.013 520.5,323.861C520.511,323.273 521.559,323.045 521.57,322.456Z" style="fill:rgb(220,185,120);"/>
        <path d="M583.489,93.718C583.713,93.758 592.903,95.4 584.902,96.188C584.692,96.208 582.82,96.393 582.787,94.617C582.78,94.237 583.496,94.098 583.489,93.718Z" style="fill:rgb(111,66,31);"/>
        <path d="M475.458,228.785C477.256,227.661 477.273,226.726 478.18,227.729C478.717,228.323 478.432,228.386 478.266,230.797C476.68,230.02 476.757,230.044 475.458,228.785Z" style="fill:rgb(197,146,79);"/>
        <path d="M340.623,469.442C340.621,469.287 340.601,467.5 340.601,467.5C340.921,467.357 341.179,468.192 341.5,468.049C342.485,469.284 343.086,469.09 342.576,470.577C342.017,472.209 341.754,470.603 340.623,469.442Z" style="fill:rgb(249,224,166);"/>
        <path d="M369.497,169.473C371.352,167.265 371.262,167.161 371.5,167.089C372.731,166.714 372.464,171.664 369.497,169.473Z" style="fill:rgb(172,122,63);"/>
        <path d="M105.544,318.469C105.54,320.992 106.035,323.502 104.506,321.475C103.838,320.588 104.088,319.864 104.135,319.729C104.495,318.686 105.207,319.447 105.544,318.469Z" style="fill:rgb(164,117,60);"/>
        <path d="M319.694,137.546C320.605,137.197 321.516,136.849 322.426,136.5C321.657,138.159 321.365,138.187 319.694,137.546Z" style="fill:rgb(105,53,21);"/>
        <path d="M505.579,499.439C505.386,499.347 500.946,497.241 504.808,496.884C505.021,496.864 505.473,496.822 505.579,499.439Z" style="fill:rgb(230,202,140);"/>
        <path d="M140.314,493.519C141.53,494.817 141.899,494.686 141.507,496.5C141.053,495.442 140.661,495.67 140.646,494.493C140.64,493.954 140.321,494.1 140.314,493.519Z" style="fill:rgb(122,76,35);"/>
        <path d="M365.423,195.969C366.259,194.707 366.459,194.834 367.781,195.5C366.753,196.376 366.688,196.049 365.423,195.969Z" style="fill:rgb(169,118,52);"/>
        <path d="M527.076,320.392L527.49,321.765C526.838,321.976 526.185,322.187 525.533,322.398C525.799,321 525.95,321.192 527.076,320.392Z" style="fill:rgb(175,149,97);"/>
        <path d="M502.111,461.261C502.373,462.044 502.634,462.828 502.896,463.611C502.634,462.828 502.373,462.044 502.111,461.261Z" style="fill:rgb(244,225,170);"/>
        <path d="M363.597,190.115C362.009,190.477 360.911,191.028 361.5,189.463C362.043,188.021 362.242,189.694 363.597,190.115Z" style="fill:rgb(161,106,50);"/>
        <path d="M434.547,296.032C436.302,295.736 436.163,295.701 436.302,295.736C442.462,297.285 435.66,297.507 435.506,297.5C434.922,297.475 435.131,296.057 434.547,296.032Z" style="fill:rgb(121,73,34);"/>
        <path d="M324.405,506.455C324.622,506.994 324.839,507.534 325.057,508.073C324.547,508.236 324.037,508.399 323.527,508.562C323.82,507.86 324.112,507.157 324.405,506.455Z" style="fill:rgb(223,189,123);"/>
        <path d="M529.527,228.334C527.616,230.637 527.725,230.815 527.467,230.816C524.722,230.824 529.298,228.452 529.527,228.334Z" style="fill:rgb(245,221,138);"/>
        <path d="M507.082,241.5L508.5,241.266L509.5,241.401L508.999,242.5L507.082,241.5Z" style="fill:rgb(245,221,151);"/>
        <path d="M252.317,294.694C251.712,294.502 251.106,294.31 250.5,294.118L251.423,293.5L252.317,294.694Z" style="fill:rgb(191,150,89);"/>
        <path d="M448.382,459.893C447.153,459.528 446.89,459.685 446.975,458.5C447.085,456.961 447.287,458.809 448.382,459.893Z" style="fill:rgb(24,11,6);"/>
        <path d="M324.428,252.533L323.362,251.5C323.62,251.46 323.242,250.771 323.5,250.73C324.301,250.605 324.61,251.205 324.657,251.297C325.023,252.008 324.098,251.892 324.428,252.533Z" style="fill:rgb(198,153,93);"/>
        <path d="M508.174,158.299C508.517,159.866 510.256,160.765 508.637,160.414C508.637,160.414 508.211,158.468 508.174,158.299Z" style="fill:rgb(252,248,202);"/>
        <path d="M245.557,275.537C246.355,274.457 246.677,272.936 246.5,274.261C246.385,275.121 245.679,274.624 245.557,275.537Z" style="fill:rgb(217,185,120);"/>
        <path d="M528.398,195.509C528.429,196.179 528.46,196.849 528.49,197.518C527.671,196.622 528.018,196.603 528.398,195.509Z" style="fill:rgb(177,124,57);"/>
    </g>
</svg>
